<mxfile host="app.diagrams.net" modified="2020-11-26T11:57:40.542Z" agent="5.0 (Macintosh; Intel Mac OS X 11_0_0) AppleWebKit/537.36 (KHTML, like Gecko) Chrome/86.0.4240.198 Safari/537.36" etag="itzSufKRsUlCiFrKboZp" version="13.10.3" type="github">
  <diagram name="Page-1" id="42789a77-a242-8287-6e28-9cd8cfd52e62">
    <mxGraphModel dx="2231" dy="1849" grid="1" gridSize="10" guides="1" tooltips="1" connect="1" arrows="1" fold="1" page="1" pageScale="1" pageWidth="1100" pageHeight="850" background="#ffffff" math="0" shadow="0">
      <root>
        <mxCell id="0" />
        <mxCell id="1" parent="0" />
        <mxCell id="ghZBPaCy5iF5E_FHECrT-15" style="edgeStyle=orthogonalEdgeStyle;rounded=0;orthogonalLoop=1;jettySize=auto;html=1;exitX=0.5;exitY=1;exitDx=0;exitDy=0;" edge="1" parent="1" source="1ea317790d2ca983-1">
          <mxGeometry relative="1" as="geometry">
            <mxPoint x="456" y="312" as="targetPoint" />
            <Array as="points">
              <mxPoint x="661" y="312" />
            </Array>
          </mxGeometry>
        </mxCell>
        <mxCell id="ghZBPaCy5iF5E_FHECrT-16" value="Update code when&amp;nbsp;&lt;br&gt;Testing Branch will&lt;br&gt;merge to production&lt;br&gt;" style="edgeLabel;html=1;align=center;verticalAlign=middle;resizable=0;points=[];" vertex="1" connectable="0" parent="ghZBPaCy5iF5E_FHECrT-15">
          <mxGeometry x="0.1439" y="1" relative="1" as="geometry">
            <mxPoint as="offset" />
          </mxGeometry>
        </mxCell>
        <mxCell id="1ea317790d2ca983-1" value="Production" style="ellipse;whiteSpace=wrap;html=1;rounded=0;shadow=1;comic=0;labelBackgroundColor=none;strokeWidth=1;fontFamily=Verdana;fontSize=12;align=center;" parent="1" vertex="1">
          <mxGeometry x="616" y="172" width="90" height="60" as="geometry" />
        </mxCell>
        <mxCell id="ghZBPaCy5iF5E_FHECrT-17" style="edgeStyle=orthogonalEdgeStyle;rounded=0;orthogonalLoop=1;jettySize=auto;html=1;entryX=0.5;entryY=0;entryDx=0;entryDy=0;" edge="1" parent="1" source="1ea317790d2ca983-9" target="1ea317790d2ca983-10">
          <mxGeometry relative="1" as="geometry" />
        </mxCell>
        <mxCell id="ghZBPaCy5iF5E_FHECrT-18" value="When Code is ready&amp;nbsp;&lt;br&gt;for testing" style="edgeLabel;html=1;align=center;verticalAlign=middle;resizable=0;points=[];" vertex="1" connectable="0" parent="ghZBPaCy5iF5E_FHECrT-17">
          <mxGeometry x="-0.05" y="-1" relative="1" as="geometry">
            <mxPoint as="offset" />
          </mxGeometry>
        </mxCell>
        <mxCell id="1ea317790d2ca983-9" value="Develop" style="ellipse;whiteSpace=wrap;html=1;rounded=0;shadow=1;comic=0;labelBackgroundColor=none;strokeWidth=1;fontFamily=Verdana;fontSize=12;align=center;" parent="1" vertex="1">
          <mxGeometry x="376" y="282" width="75" height="50" as="geometry" />
        </mxCell>
        <mxCell id="ghZBPaCy5iF5E_FHECrT-8" style="edgeStyle=orthogonalEdgeStyle;rounded=0;orthogonalLoop=1;jettySize=auto;html=1;" edge="1" parent="1" source="1ea317790d2ca983-10" target="1ea317790d2ca983-1">
          <mxGeometry relative="1" as="geometry">
            <mxPoint x="606" y="202" as="targetPoint" />
            <Array as="points">
              <mxPoint x="276" y="437" />
              <mxPoint x="276" y="202" />
            </Array>
          </mxGeometry>
        </mxCell>
        <mxCell id="ghZBPaCy5iF5E_FHECrT-9" value="Test Cases pass" style="edgeLabel;html=1;align=center;verticalAlign=middle;resizable=0;points=[];" vertex="1" connectable="0" parent="ghZBPaCy5iF5E_FHECrT-8">
          <mxGeometry x="-0.2711" y="1" relative="1" as="geometry">
            <mxPoint as="offset" />
          </mxGeometry>
        </mxCell>
        <mxCell id="ghZBPaCy5iF5E_FHECrT-13" style="edgeStyle=orthogonalEdgeStyle;rounded=0;orthogonalLoop=1;jettySize=auto;html=1;entryX=0.5;entryY=0;entryDx=0;entryDy=0;" edge="1" parent="1" source="1ea317790d2ca983-10" target="1ea317790d2ca983-11">
          <mxGeometry relative="1" as="geometry" />
        </mxCell>
        <mxCell id="ghZBPaCy5iF5E_FHECrT-14" value="Test Cases fails" style="edgeLabel;html=1;align=center;verticalAlign=middle;resizable=0;points=[];" vertex="1" connectable="0" parent="ghZBPaCy5iF5E_FHECrT-13">
          <mxGeometry x="-0.02" y="1" relative="1" as="geometry">
            <mxPoint as="offset" />
          </mxGeometry>
        </mxCell>
        <mxCell id="1ea317790d2ca983-10" value="&lt;span&gt;Testing&lt;/span&gt;" style="ellipse;whiteSpace=wrap;html=1;rounded=0;shadow=1;comic=0;labelBackgroundColor=none;strokeWidth=1;fontFamily=Verdana;fontSize=12;align=center;" parent="1" vertex="1">
          <mxGeometry x="376" y="412" width="75" height="50" as="geometry" />
        </mxCell>
        <mxCell id="ghZBPaCy5iF5E_FHECrT-11" style="edgeStyle=orthogonalEdgeStyle;rounded=0;orthogonalLoop=1;jettySize=auto;html=1;entryX=0;entryY=1;entryDx=0;entryDy=0;" edge="1" parent="1" source="1ea317790d2ca983-11" target="1ea317790d2ca983-10">
          <mxGeometry relative="1" as="geometry">
            <mxPoint x="386" y="482" as="targetPoint" />
            <Array as="points">
              <mxPoint x="326" y="587" />
              <mxPoint x="326" y="455" />
            </Array>
          </mxGeometry>
        </mxCell>
        <mxCell id="ghZBPaCy5iF5E_FHECrT-12" value="Push code&lt;br&gt;Back to Origin" style="edgeLabel;html=1;align=center;verticalAlign=middle;resizable=0;points=[];" vertex="1" connectable="0" parent="ghZBPaCy5iF5E_FHECrT-11">
          <mxGeometry x="-0.0056" relative="1" as="geometry">
            <mxPoint as="offset" />
          </mxGeometry>
        </mxCell>
        <mxCell id="1ea317790d2ca983-11" value="&lt;span&gt;&lt;font style=&quot;font-size: 10px&quot;&gt;&lt;br&gt;Temp_Branch&lt;/font&gt;&lt;br&gt;&lt;br&gt;&lt;/span&gt;" style="ellipse;whiteSpace=wrap;html=1;rounded=0;shadow=1;comic=0;labelBackgroundColor=none;strokeWidth=1;fontFamily=Verdana;fontSize=12;align=center;" parent="1" vertex="1">
          <mxGeometry x="376" y="562" width="75" height="50" as="geometry" />
        </mxCell>
        <mxCell id="ghZBPaCy5iF5E_FHECrT-20" value="When code will be pushed to Testing Branch&amp;nbsp;&lt;br&gt;then developer will also provide a Build to&lt;br&gt;Tester from Testing Branch and continue&lt;br&gt;&amp;nbsp;work on Develop Branch for next task.&amp;nbsp;" style="text;html=1;align=center;verticalAlign=middle;resizable=0;points=[];autosize=1;" vertex="1" parent="1">
          <mxGeometry x="466" y="407" width="250" height="60" as="geometry" />
        </mxCell>
        <mxCell id="ghZBPaCy5iF5E_FHECrT-21" value="After every Push Back to origin&lt;br&gt;we delete this temp branch" style="text;html=1;align=center;verticalAlign=middle;resizable=0;points=[];autosize=1;" vertex="1" parent="1">
          <mxGeometry x="476" y="572" width="180" height="30" as="geometry" />
        </mxCell>
        <mxCell id="ghZBPaCy5iF5E_FHECrT-22" value="&lt;font style=&quot;font-size: 28px;&quot;&gt;&lt;b style=&quot;font-size: 28px;&quot;&gt;&lt;u style=&quot;font-size: 28px;&quot;&gt;Github Flow Diagram&lt;/u&gt;&lt;/b&gt;&lt;/font&gt;" style="text;html=1;align=center;verticalAlign=middle;resizable=0;points=[];autosize=1;fontSize=28;" vertex="1" parent="1">
          <mxGeometry x="341" y="71" width="300" height="40" as="geometry" />
        </mxCell>
      </root>
    </mxGraphModel>
  </diagram>
</mxfile>
